Normalized EMG Linear Envelopes
nRows=244
nColumns=4

endheader
time	 med_gas_r	  soleus_r	 tib_ant_r	
2.56149	  0.007006	  0.019453	  0.003246	
2.59476	  0.006779	  0.019491	  0.003277	
2.62802	  0.006576	  0.019471	  0.003307	
2.66129	  0.006412	  0.019386	  0.003333	
2.69456	  0.006303	  0.019253	  0.003357	
2.72782	  0.006259	  0.019096	  0.003378	
2.76109	  0.006283	  0.018922	  0.003397	
2.79435	  0.006362	  0.018745	  0.003412	
2.82762	  0.006466	  0.018606	  0.003417	
2.86089	  0.006558	  0.018582	  0.003405	
2.89415	  0.006608	  0.018753	  0.003371	
2.92742	  0.006608	  0.019163	  0.003315	
2.96069	  0.006578	  0.019797	  0.003247	
2.99395	  0.006550	  0.020595	  0.003184	
3.02722	  0.006550	  0.021475	  0.003140	
3.06048	  0.006585	  0.022345	  0.003120	
3.09375	  0.006658	  0.023129	  0.003118	
3.12702	  0.006770	  0.023776	  0.003124	
3.16028	  0.006921	  0.024264	  0.003133	
3.19355	  0.007107	  0.024582	  0.003147	
3.22681	  0.007304	  0.024704	  0.003171	
3.26008	  0.007479	  0.024572	  0.003208	
3.29335	  0.007600	  0.024124	  0.003259	
3.32661	  0.007653	  0.023343	  0.003316	
3.35988	  0.007643	  0.022305	  0.003371	
3.39315	  0.007584	  0.021173	  0.003413	
3.42641	  0.007491	  0.020133	  0.003434	
3.45968	  0.007371	  0.019317	  0.003430	
3.49294	  0.007216	  0.018779	  0.003401	
3.52621	  0.007020	  0.018509	  0.003353	
3.55948	  0.006788	  0.018479	  0.003299	
3.59274	  0.006551	  0.018659	  0.003251	
3.62601	  0.006352	  0.018991	  0.003220	
3.65927	  0.006236	  0.019372	  0.003216	
3.69254	  0.006230	  0.019673	  0.003242	
3.72581	  0.006329	  0.019801	  0.003295	
3.75907	  0.006503	  0.019750	  0.003362	
3.79234	  0.006702	  0.019597	  0.003421	
3.8256	  0.006875	  0.019446	  0.003451	
3.85887	  0.006985	  0.019379	  0.003442	
3.89214	  0.007024	  0.019439	  0.003403	
3.9254	  0.007004	  0.019643	  0.003353	
3.95867	  0.006947	  0.019978	  0.003310	
3.99194	  0.006869	  0.020393	  0.003283	
4.0252	  0.006775	  0.020787	  0.003268	
4.05847	  0.006674	  0.021044	  0.003256	
4.09173	  0.006584	  0.021094	  0.003239	
4.125	  0.006531	  0.020929	  0.003210	
4.15827	  0.006533	  0.020582	  0.003166	
4.19153	  0.006592	  0.020085	  0.003110	
4.2248	  0.006691	  0.019457	  0.003054	
4.25806	  0.006802	  0.018744	  0.003013	
4.29133	  0.006892	  0.018046	  0.003001	
4.3246	  0.006930	  0.017493	  0.003022	
4.35786	  0.006899	  0.017175	  0.003066	
4.39113	  0.006795	  0.017086	  0.003117	
4.4244	  0.006627	  0.017141	  0.003160	
4.45766	  0.006411	  0.017233	  0.003193	
4.49093	  0.006171	  0.017307	  0.003228	
4.52419	  0.005938	  0.017365	  0.003284	
4.55746	  0.005750	  0.017437	  0.003374	
4.59073	  0.005642	  0.017531	  0.003501	
4.62399	  0.005636	  0.017635	  0.003652	
4.65726	  0.005730	  0.017735	  0.003800	
4.69052	  0.005896	  0.017837	  0.003904	
4.72379	  0.006081	  0.017948	  0.003906	
4.75706	  0.006231	  0.018043	  0.003727	
4.79032	  0.006300	  0.018062	  0.003263	
4.82359	  0.006270	  0.017940	  0.002400	
4.85685	  0.006142	  0.017644	  0.001041	
4.89012	  0.005938	  0.017182	 -0.000867	
4.92339	  0.005694	  0.016576	 -0.003292	
4.95665	  0.005452	  0.015849	 -0.006065	
4.98992	  0.005261	  0.015030	 -0.008787	
5.02319	  0.005179	  0.014198	 -0.010722	
5.05645	  0.005280	  0.013550	 -0.010718	
5.08972	  0.005673	  0.013461	 -0.007218	
5.12298	  0.006498	  0.014554	  0.001660	
5.15625	  0.007913	  0.017714	  0.018021	
5.18952	  0.010069	  0.024040	  0.044000	
5.22278	  0.013069	  0.034702	  0.081302	
5.25605	  0.016929	  0.050698	  0.130325	
5.28931	  0.021533	  0.072522	  0.189195	
5.32258	  0.026633	  0.099783	  0.253516	
5.35585	  0.031900	  0.130959	  0.317519	
5.38911	  0.037005	  0.163537	  0.376223	
5.42238	  0.041698	  0.194687	  0.427232	
5.45565	  0.045824	  0.222233	  0.470844	
5.48891	  0.049300	  0.245357	  0.508565	
5.52218	  0.052083	  0.264494	  0.541447	
5.55544	  0.054163	  0.280452	  0.569593	
5.58871	  0.055574	  0.293364	  0.592855	
5.62198	  0.056420	  0.302355	  0.611737	
5.65524	  0.056865	  0.306247	  0.627646	
5.68851	  0.057090	  0.304772	  0.642518	
5.72177	  0.057223	  0.299235	  0.658295	
5.75504	  0.057297	  0.292020	  0.676463	
5.78831	  0.057260	  0.285381	  0.697481	
5.82157	  0.057040	  0.280578	  0.720104	
5.85484	  0.056630	  0.277968	  0.741183	
5.8881	  0.056119	  0.277679	  0.756559	
5.92137	  0.055657	  0.280027	  0.762957	
5.95464	  0.055374	  0.285312	  0.759816	
5.9879	  0.055301	  0.293323	  0.749753	
6.02117	  0.055377	  0.303051	  0.737172	
6.05444	  0.055490	  0.312759	  0.725861	
6.0877	  0.055515	  0.320302	  0.717167	
6.12097	  0.055330	  0.323653	  0.709909	
6.15423	  0.054834	  0.321737	  0.701894	
6.1875	  0.054012	  0.315417	  0.691837	
6.22077	  0.052985	  0.307873	  0.680276	
6.25403	  0.051983	  0.303572	  0.668916	
6.2873	  0.051248	  0.305955	  0.659095	
6.32056	  0.050927	  0.315318	  0.650801	
6.35383	  0.051037	  0.328553	  0.643086	
6.3871	  0.051483	  0.341102	  0.635327	
6.42036	  0.052093	  0.349712	  0.627984	
6.45363	  0.052657	  0.353953	  0.622133	
6.4869	  0.052983	  0.355677	  0.618422	
6.52016	  0.052998	  0.357364	  0.616649	
6.55343	  0.052842	  0.360973	  0.616346	
6.58669	  0.052855	  0.367946	  0.617523	
6.61996	  0.053424	  0.379526	  0.620544	
6.65323	  0.054739	  0.396301	  0.625151	
6.68649	  0.056609	  0.417036	  0.629771	
6.71976	  0.058492	  0.438146	  0.632079	
6.75302	  0.059751	  0.454836	  0.630520	
6.78629	  0.059982	  0.463284	  0.625468	
6.81956	  0.059188	  0.462136	  0.618928	
6.85282	  0.057685	  0.452226	  0.613038	
6.88609	  0.055852	  0.435180	  0.608637	
6.91935	  0.053955	  0.412376	  0.605041	
6.95262	  0.052146	  0.385126	  0.600977	
6.98589	  0.050557	  0.355497	  0.595706	
7.01915	  0.049345	  0.326661	  0.589500	
7.05242	  0.048627	  0.302221	  0.583373	
7.08569	  0.048403	  0.285000	  0.578512	
7.11895	  0.048569	  0.276199	  0.575740	
7.15222	  0.048999	  0.275399	  0.575150	
7.18548	  0.049575	  0.281138	  0.576087	
7.21875	  0.050154	  0.291471	  0.577520	
7.25202	  0.050545	  0.304233	  0.578632	
7.28528	  0.050597	  0.317203	  0.579199	
7.31855	  0.050317	  0.328375	  0.579544	
7.35181	  0.049895	  0.336373	  0.580282	
7.38508	  0.049585	  0.340816	  0.582141	
7.41835	  0.049535	  0.342455	  0.585855	
7.45161	  0.049732	  0.342960	  0.591895	
7.48488	  0.050062	  0.344395	  0.600073	
7.51815	  0.050434	  0.348755	  0.609499	
7.55141	  0.050858	  0.357819	  0.619291	
7.58468	  0.051437	  0.373077	  0.629533	
7.61794	  0.052302	  0.395237	  0.641408	
7.65121	  0.053528	  0.423373	  0.656007	
7.68448	  0.055067	  0.454430	  0.672886	
7.71774	  0.056724	  0.483816	  0.689930	
7.75101	  0.058215	  0.506951	  0.704871	
7.78427	  0.059285	  0.520961	  0.716916	
7.81754	  0.059815	  0.525627	  0.726720	
7.85081	  0.059868	  0.523210	  0.734750	
7.88407	  0.059641	  0.517336	  0.739905	
7.91734	  0.059348	  0.511446	  0.739932	
7.9506	  0.059131	  0.507380	  0.733123	
7.98387	  0.059014	  0.504661	  0.719472	
8.01714	  0.058929	  0.500916	  0.700318	
8.0504	  0.058759	  0.493454	  0.677258	
8.08367	  0.058394	  0.481312	  0.651756	
8.11694	  0.057785	  0.466565	  0.625774	
8.1502	  0.056988	  0.453793	  0.602471	
8.18347	  0.056166	  0.447773	  0.585832	
8.21673	  0.055533	  0.450815	  0.579155	
8.25	  0.055226	  0.461593	  0.583439	
8.28327	  0.055207	  0.476225	  0.596813	
8.31653	  0.055270	  0.490544	  0.615331	
8.3498	  0.055164	  0.501772	  0.634462	
8.38306	  0.054728	  0.508583	  0.650425	
8.41633	  0.053941	  0.510150	  0.660941	
8.4496	  0.052865	  0.505524	  0.665350	
8.48286	  0.051580	  0.494123	  0.664109	
8.51613	  0.050174	  0.476759	  0.657886	
8.5494	  0.048783	  0.455876	  0.646962	
8.58266	  0.047599	  0.434448	  0.631606	
8.61593	  0.046812	  0.414466	  0.613198	
8.64919	  0.046522	  0.396612	  0.594837	
8.68246	  0.046702	  0.381531	  0.580519	
8.71573	  0.047236	  0.371304	  0.573306	
8.74899	  0.048002	  0.369364	  0.573974	
8.78226	  0.048908	  0.378715	  0.581210	
8.81552	  0.049899	  0.400044	  0.593102	
8.84879	  0.050954	  0.431353	  0.608606	
8.88206	  0.052098	  0.469240	  0.627827	
8.91532	  0.053423	  0.510585	  0.650985	
8.94859	  0.055074	  0.553336	  0.676988	
8.98185	  0.057203	  0.596161	  0.702876	
9.01512	  0.059879	  0.637686	  0.724736	
9.04839	  0.063037	  0.676184	  0.739452	
9.08165	  0.066501	  0.709917	  0.745936	
9.11492	  0.070132	  0.737604	  0.744977	
9.14819	  0.073992	  0.758516	  0.738224	
9.18145	  0.078372	  0.772317	  0.727557	
9.21472	  0.083612	  0.779252	  0.715246	
9.24798	  0.089813	  0.780785	  0.704133	
9.28125	  0.096669	  0.780027	  0.696886	
9.31452	  0.103524	  0.781037	  0.694634	
9.34778	  0.109599	  0.787035	  0.696209	
9.38105	  0.114234	  0.798653	  0.698783	
9.41431	  0.117009	  0.813515	  0.699418	
9.44758	  0.117716	  0.827509	  0.696334	
9.48085	  0.116235	  0.836851	  0.689160	
9.51411	  0.112475	  0.839643	  0.678338	
9.54738	  0.106468	  0.836019	  0.664398	
9.58065	  0.098552	  0.826989	  0.647606	
9.61391	  0.089433	  0.812879	  0.627934	
9.64718	  0.080013	  0.792433	  0.605021	
9.68044	  0.071054	  0.763109	  0.578177	
9.71371	  0.062930	  0.722303	  0.546801	
9.74698	  0.055622	  0.668694	  0.511167	
9.78024	  0.048939	  0.602984	  0.472925	
9.81351	  0.042749	  0.527864	  0.434668	
9.84677	  0.037084	  0.447534	  0.398866	
9.88004	  0.032081	  0.367107	  0.367028	
9.91331	  0.027860	  0.291963	  0.339649	
9.94657	  0.024459	  0.226898	  0.316667	
9.97984	  0.021838	  0.175140	  0.297771	
10.0131	  0.019933	  0.137656	  0.282358	
10.0464	  0.018678	  0.113181	  0.269445	
10.0796	  0.017988	  0.099012	  0.257890	
10.1129	  0.017711	  0.092101	  0.246852	
10.1462	  0.017624	  0.089803	  0.236030	
10.1794	  0.017477	  0.090039	  0.225437	
10.2127	  0.017095	  0.091154	  0.214939	
10.246	  0.016445	  0.091857	  0.204084	
10.2792	  0.015631	  0.091342	  0.192403	
10.3125	  0.014819	  0.089360	  0.179837	
10.3458	  0.014135	  0.086102	  0.166773	
10.379	  0.013629	  0.081954	  0.153619	
10.4123	  0.013302	  0.077317	  0.140376	
10.4456	  0.013149	  0.072548	  0.126644	
10.4788	  0.013189	  0.067950	  0.112078	
10.5121	  0.013429	  0.063735	  0.096832	
10.5454	  0.013833	  0.059989	  0.081601	
10.5786	  0.014322	  0.056688	  0.067265	
10.6119	  0.014813	  0.053775	  0.054444	
10.6452	  0.015267	  0.051234	  0.043300	
